<svg width="19" height="18" viewBox="0 0 19 18" fill="none" xmlns="http://www.w3.org/2000/svg">
<path d="M5.18571 0.153988C4.91898 0.0825175 4.64481 0.240809 4.57334 0.507542L4.18376 1.96148C4.11234 2.22804 4.27038 2.50207 4.53688 2.57374L12.4713 4.70737C12.9013 4.82299 12.977 5.40061 12.5915 5.62323L0.829488 12.414C0.590342 12.5521 0.508405 12.8579 0.646476 13.097L1.40261 14.4067C1.54068 14.6458 1.84647 14.7278 2.08562 14.5897L13.8449 7.80044C14.2309 7.57761 14.6935 7.93292 14.5778 8.3633L12.4452 16.2939C12.3734 16.5607 12.5317 16.8352 12.7986 16.9067L14.2688 17.3007C14.5356 17.3721 14.8098 17.2138 14.8812 16.9471L18.3006 4.18575C18.3721 3.91902 18.2138 3.64485 17.9471 3.57338L5.18571 0.153988Z" fill="black"/>
</svg>
